<svg xmlns="http://www.w3.org/2000/svg" xmlns:xlink="http://www.w3.org/1999/xlink" id="Layer_1" x="0px" y="0px" viewBox="0 0 300 74.9" style="enable-background:new 0 0 300 74.9;" xml:space="preserve"><style type="text/css">	.st0{fill:#FFFFFF;}	.st1{fill:#2A3F84;}</style><g id="a"></g><g id="b">	<g id="c">		<g>			<path class="st0" d="M24.2,0.7h251.5c13,0,23.6,10.6,23.6,23.6v26.4c0,13-10.6,23.6-23.6,23.6H24.2c-13,0-23.6-10.6-23.6-23.6     V24.2C0.7,11.2,11.2,0.7,24.2,0.7z"></path>			<path class="st1" d="M275.8,74.9H24.2C10.9,74.9,0,64,0,50.6V24.2C0,10.9,10.9,0,24.2,0h251.5C289.1,0,300,10.9,300,24.2v26.4     C300,64,289.1,74.9,275.8,74.9z M24.2,1.3C11.6,1.3,1.3,11.6,1.3,24.2v26.4c0,12.6,10.3,22.9,22.9,22.9h251.5     c12.6,0,22.9-10.3,22.9-22.9V24.2c0-12.6-10.3-22.9-22.9-22.9H24.2z"></path>		</g>		<g>			<path class="st1" d="M39.6,20l3.5-0.2c0.1,0.6,0.2,1,0.5,1.3c0.4,0.5,0.9,0.7,1.6,0.7c0.5,0,0.9-0.1,1.2-0.4     c0.3-0.2,0.4-0.5,0.4-0.8s-0.1-0.6-0.4-0.8c-0.3-0.2-0.9-0.5-1.9-0.7c-1.6-0.4-2.7-0.8-3.4-1.4c-0.7-0.6-1-1.4-1-2.3     c0-0.6,0.2-1.2,0.5-1.7c0.4-0.5,0.9-1,1.6-1.3c0.7-0.3,1.7-0.5,2.9-0.5c1.5,0,2.7,0.3,3.5,0.8c0.8,0.6,1.3,1.5,1.4,2.7l-3.4,0.2     c-0.1-0.5-0.3-0.9-0.6-1.2c-0.3-0.2-0.7-0.4-1.2-0.4c-0.4,0-0.7,0.1-1,0.3c-0.2,0.2-0.3,0.4-0.3,0.7c0,0.2,0.1,0.4,0.3,0.5     c0.2,0.2,0.6,0.3,1.2,0.4c1.6,0.3,2.7,0.7,3.4,1c0.7,0.4,1.2,0.8,1.5,1.3c0.3,0.5,0.5,1.1,0.5,1.7c0,0.8-0.2,1.5-0.6,2.1     c-0.4,0.6-1,1.1-1.8,1.5c-0.8,0.3-1.7,0.5-2.8,0.5c-2,0-3.4-0.4-4.2-1.2C40.1,22.2,39.7,21.2,39.6,20L39.6,20z"></path>			<path class="st1" d="M51.6,18c0-1.9,0.5-3.4,1.6-4.5c1.1-1.1,2.6-1.6,4.5-1.6c1.9,0,3.5,0.5,4.5,1.6c1.1,1.1,1.6,2.5,1.6,4.4     c0,1.4-0.2,2.5-0.7,3.4c-0.5,0.9-1.1,1.6-2,2.1c-0.9,0.5-2,0.7-3.3,0.7c-1.3,0-2.4-0.2-3.3-0.6c-0.9-0.4-1.6-1.1-2.1-2     C51.9,20.6,51.6,19.4,51.6,18L51.6,18z M55.3,18.1c0,1.2,0.2,2,0.7,2.6c0.4,0.5,1,0.8,1.8,0.8c0.8,0,1.4-0.3,1.8-0.8     c0.4-0.5,0.6-1.4,0.6-2.7c0-1.1-0.2-1.9-0.7-2.4c-0.4-0.5-1.1-0.8-1.8-0.8c-0.8,0-1.3,0.3-1.8,0.8C55.5,16,55.3,16.9,55.3,18.1     L55.3,18.1z"></path>			<path class="st1" d="M65.8,12.1h3.6V21h5.7v2.9h-9.3L65.8,12.1L65.8,12.1z"></path>			<path class="st1" d="M84.1,12.1h3.6v7c0,0.7-0.1,1.4-0.3,2c-0.2,0.6-0.6,1.2-1,1.6s-1,0.8-1.5,1c-0.7,0.3-1.6,0.4-2.6,0.4     c-0.6,0-1.2,0-1.9-0.1c-0.7-0.1-1.2-0.2-1.7-0.5s-0.9-0.6-1.3-1c-0.4-0.4-0.6-0.9-0.8-1.4c-0.2-0.8-0.3-1.4-0.3-2v-7h3.6v7.2     c0,0.6,0.2,1.1,0.5,1.5c0.4,0.4,0.9,0.5,1.5,0.5c0.6,0,1.1-0.2,1.5-0.5c0.4-0.4,0.5-0.9,0.5-1.5V12.1L84.1,12.1z"></path>			<path class="st1" d="M89.3,12.1h11.1v2.9h-3.7v8.9H93v-8.9h-3.7L89.3,12.1L89.3,12.1z M93.8,24.9h2.2v1.6c0,0.6-0.1,1-0.4,1.4     c-0.2,0.3-0.7,0.6-1.2,0.9l-0.6-0.8c0.7-0.3,1-0.7,1-1.1h-1L93.8,24.9L93.8,24.9z"></path>			<path class="st1" d="M102.2,12.1h3.7v11.8h-3.7V12.1z"></path>			<path class="st1" d="M108,18c0-1.9,0.5-3.4,1.6-4.5c1.1-1.1,2.6-1.6,4.5-1.6s3.5,0.5,4.5,1.6c1.1,1.1,1.6,2.5,1.6,4.4     c0,1.4-0.2,2.5-0.7,3.4c-0.5,0.9-1.1,1.6-2,2.1c-0.9,0.5-2,0.7-3.3,0.7c-1.3,0-2.4-0.2-3.3-0.6c-0.9-0.4-1.6-1.1-2.1-2     C108.3,20.6,108,19.4,108,18L108,18z M111.7,18.1c0,1.2,0.2,2,0.7,2.6c0.4,0.5,1,0.8,1.8,0.8c0.8,0,1.4-0.3,1.8-0.8     c0.4-0.5,0.6-1.4,0.6-2.7c0-1.1-0.2-1.9-0.7-2.4c-0.4-0.5-1.1-0.8-1.8-0.8s-1.3,0.3-1.8,0.8C111.9,16,111.7,16.9,111.7,18.1     L111.7,18.1z"></path>			<path class="st1" d="M122.2,12.1h3.4l4.4,6.5v-6.5h3.4v11.8h-3.4l-4.4-6.5v6.5h-3.4L122.2,12.1L122.2,12.1z"></path>			<path class="st1" d="M143,22h-4.1l-0.6,1.9h-3.7l4.4-11.8h4l4.4,11.8h-3.8L143,22z M142.3,19.4l-1.3-4.2l-1.3,4.2H142.3     L142.3,19.4z"></path>			<path class="st1" d="M148.7,23.9V12.1h6.1c1.1,0,2,0.1,2.6,0.3s1.1,0.6,1.4,1.1c0.4,0.5,0.5,1.2,0.5,1.9c0,0.7-0.1,1.2-0.4,1.7     s-0.7,0.9-1.2,1.2c-0.3,0.2-0.7,0.3-1.3,0.5c0.4,0.1,0.8,0.3,0.9,0.4c0.1,0.1,0.3,0.3,0.6,0.6c0.3,0.3,0.4,0.6,0.5,0.7l1.8,3.4     h-4.1l-2-3.6c-0.2-0.5-0.5-0.8-0.7-0.9c-0.3-0.2-0.6-0.3-0.9-0.3h-0.3v4.8L148.7,23.9L148.7,23.9z M152.3,16.9h1.5     c0.2,0,0.5-0.1,1-0.2c0.2,0,0.4-0.2,0.6-0.4c0.2-0.2,0.2-0.4,0.2-0.7c0-0.4-0.1-0.7-0.4-0.9c-0.2-0.2-0.7-0.3-1.4-0.3h-1.6     L152.3,16.9L152.3,16.9z"></path>			<path class="st1" d="M161.4,12.1h9.8v2.5h-6.1v1.9h5.7v2.4h-5.7v2.3h6.3v2.7h-10L161.4,12.1L161.4,12.1z"></path>			<path class="st1" d="M180.6,22h-4.1l-0.6,1.9h-3.7l4.4-11.8h4l4.4,11.8h-3.8L180.6,22z M179.9,19.4l-1.3-4.2l-1.3,4.2H179.9z"></path>			<path class="st1" d="M191.2,18c0-1.9,0.5-3.4,1.6-4.5c1.1-1.1,2.6-1.6,4.5-1.6s3.5,0.5,4.5,1.6s1.6,2.5,1.6,4.4     c0,1.4-0.2,2.5-0.7,3.4c-0.5,0.9-1.1,1.6-2,2.1c-0.9,0.5-2,0.7-3.3,0.7s-2.4-0.2-3.3-0.6c-0.9-0.4-1.6-1.1-2.1-2     C191.5,20.6,191.2,19.4,191.2,18L191.2,18z M194.9,18.1c0,1.2,0.2,2,0.7,2.6c0.4,0.5,1,0.8,1.8,0.8s1.4-0.3,1.8-0.8     c0.4-0.5,0.6-1.4,0.6-2.7c0-1.1-0.2-1.9-0.7-2.4c-0.4-0.5-1.1-0.8-1.8-0.8c-0.8,0-1.3,0.3-1.8,0.8     C195.1,16,194.9,16.9,194.9,18.1L194.9,18.1z"></path>			<path class="st1" d="M205.4,12.1h3.4l4.4,6.5v-6.5h3.4v11.8h-3.4l-4.4-6.5v6.5h-3.4V12.1z"></path>			<path class="st1" d="M219.2,12.1h3.6V21h5.7v2.9h-9.3L219.2,12.1L219.2,12.1z"></path>			<path class="st1" d="M230.3,12.1h3.7v11.8h-3.7V12.1z"></path>			<path class="st1" d="M236.6,12.1h3.4l4.4,6.5v-6.5h3.4v11.8h-3.4l-4.4-6.5v6.5h-3.4V12.1z"></path>			<path class="st1" d="M250.3,12.1h9.8v2.5H254v1.9h5.7v2.4H254v2.3h6.3v2.7h-10L250.3,12.1L250.3,12.1z"></path>			<path class="st1" d="M99.5,41.8h-4.1l-0.6,1.9h-3.7l4.4-11.8h4l4.4,11.8h-3.8L99.5,41.8z M98.7,39.2L97.4,35l-1.3,4.2L98.7,39.2     L98.7,39.2z"></path>			<path class="st1" d="M110.6,31.9h3.6v8.9h5.7v2.9h-9.3L110.6,31.9L110.6,31.9z"></path>			<path class="st1" d="M121.7,31.9h3.7v11.8h-3.7V31.9L121.7,31.9z"></path>			<path class="st1" d="M127.2,31.9h11.1v2.9h-3.7v8.9h-3.6v-8.9h-3.7L127.2,31.9L127.2,31.9z"></path>			<path class="st1" d="M140,31.9h3.7v11.8H140V31.9L140,31.9z"></path>			<path class="st1" d="M152.3,39.5V37h5.6v5c-1.1,0.7-2,1.2-2.9,1.5c-0.8,0.3-1.8,0.4-3,0.4c-1.4,0-2.5-0.2-3.4-0.7     c-0.9-0.5-1.6-1.2-2.1-2.1c-0.5-0.9-0.7-2-0.7-3.3c0-1.3,0.3-2.4,0.8-3.4c0.5-1,1.3-1.7,2.3-2.2c0.8-0.4,1.9-0.6,3.2-0.6     s2.3,0.1,2.9,0.4c0.6,0.2,1.2,0.6,1.6,1.1c0.4,0.5,0.7,1.1,1,1.9l-3.5,0.6c-0.1-0.4-0.4-0.8-0.7-1c-0.3-0.2-0.8-0.4-1.3-0.4     c-0.8,0-1.4,0.3-1.9,0.8c-0.5,0.6-0.7,1.4-0.7,2.6c0,1.3,0.2,2.2,0.7,2.7c0.5,0.5,1.2,0.8,2,0.8c0.4,0,0.8-0.1,1.2-0.2     c0.4-0.1,0.8-0.3,1.3-0.6v-1.1H152.3L152.3,39.5z"></path>			<path class="st1" d="M160.2,31.9h3.7v11.8h-3.7V31.9L160.2,31.9z"></path>			<path class="st1" d="M166.6,31.9h3.7v11.8h-3.7V31.9L166.6,31.9z"></path>			<path class="st1" d="M172.9,31.9h3.6v8.9h5.7v2.9h-9.3L172.9,31.9L172.9,31.9z"></path>			<path class="st1" d="M183.1,37.8c0-1.9,0.5-3.4,1.6-4.5c1.1-1.1,2.6-1.6,4.5-1.6s3.5,0.5,4.5,1.6s1.6,2.5,1.6,4.4     c0,1.4-0.2,2.5-0.7,3.4s-1.1,1.6-2,2.1c-0.9,0.5-2,0.7-3.3,0.7s-2.4-0.2-3.3-0.6c-0.9-0.4-1.6-1.1-2.1-2     C183.4,40.4,183.2,39.2,183.1,37.8L183.1,37.8z M186.8,37.9c0,1.2,0.2,2,0.7,2.6c0.4,0.5,1,0.8,1.8,0.8s1.4-0.3,1.8-0.8     s0.6-1.4,0.6-2.7c0-1.1-0.2-1.9-0.7-2.4c-0.4-0.5-1.1-0.8-1.8-0.8c-0.8,0-1.3,0.3-1.8,0.8C187,35.8,186.8,36.7,186.8,37.9     L186.8,37.9z"></path>			<path class="st1" d="M197.4,43.7V31.9h6.1c1.1,0,2,0.1,2.6,0.3c0.6,0.2,1.1,0.6,1.4,1.1s0.5,1.2,0.5,1.9c0,0.7-0.1,1.2-0.4,1.7     s-0.7,0.9-1.2,1.2c-0.3,0.2-0.7,0.3-1.3,0.5c0.4,0.1,0.8,0.3,0.9,0.4c0.1,0.1,0.3,0.3,0.6,0.6c0.3,0.3,0.4,0.6,0.5,0.7l1.8,3.4     h-4.1l-2-3.6c-0.2-0.5-0.5-0.8-0.7-0.9c-0.3-0.2-0.6-0.3-0.9-0.3h-0.3v4.8L197.4,43.7L197.4,43.7z M201.1,36.7h1.5     c0.2,0,0.5-0.1,1-0.2c0.2,0,0.4-0.2,0.6-0.4c0.2-0.2,0.2-0.4,0.2-0.7c0-0.4-0.1-0.7-0.4-0.9c-0.2-0.2-0.7-0.3-1.4-0.3h-1.6V36.7z     "></path>		</g>		<path class="st1" d="M127.2,50.8h45.6c4.7,0,8.6,3.8,8.6,8.6l0,0c0,4.7-3.8,8.6-8.6,8.6h-45.6c-4.7,0-8.6-3.8-8.6-8.6l0,0    C118.7,54.7,122.5,50.8,127.2,50.8z"></path>		<g>			<path class="st0" d="M125.7,55.3h3.8c0.7,0,1.3,0.1,1.8,0.3c0.5,0.2,0.8,0.5,1.1,0.9c0.3,0.4,0.5,0.8,0.7,1.3     c0.1,0.5,0.2,1,0.2,1.6c0,0.9-0.1,1.6-0.3,2.1c-0.2,0.5-0.5,0.9-0.8,1.2c-0.4,0.3-0.7,0.5-1.1,0.7c-0.6,0.1-1.1,0.2-1.5,0.2h-3.8     L125.7,55.3L125.7,55.3z M128.3,57.1v4.5h0.6c0.5,0,0.9-0.1,1.1-0.2c0.2-0.1,0.4-0.3,0.5-0.6c0.1-0.3,0.2-0.8,0.2-1.4     c0-0.9-0.1-1.5-0.4-1.8s-0.8-0.5-1.4-0.5H128.3L128.3,57.1z"></path>			<path class="st0" d="M134.6,55.3h6.8V57h-4.3v1.3h4V60h-4v1.6h4.4v1.9h-7L134.6,55.3L134.6,55.3z"></path>			<path class="st0" d="M142.4,55.3h7.7v2h-2.6v6.2H145v-6.2h-2.6L142.4,55.3L142.4,55.3z"></path>			<path class="st0" d="M155.6,62.1h-2.9l-0.4,1.4h-2.6l3.1-8.2h2.8l3.1,8.2H156L155.6,62.1z M155,60.4l-0.9-3l-0.9,3H155z"></path>			<path class="st0" d="M159.5,55.3h2.5v6.2h4v2h-6.5L159.5,55.3L159.5,55.3z"></path>			<path class="st0" d="M167.2,55.3h2.6v8.2h-2.6V55.3L167.2,55.3z"></path>			<path class="st0" d="M171.7,55.3h2.6v8.2h-2.6V55.3z"></path>		</g>	</g></g></svg>