<?xml version="1.0" encoding="UTF-8"?>
<svg xmlns="http://www.w3.org/2000/svg" width="100%" height="100%" viewBox="0 0 148 90" fill="none">
  <path d="M69.7075 64.2815L63.0031 81.4124H65.9187L66.6291 79.6017H71.3651L71.8313 81.4198H81.4513L74.2733 64.2889L69.7075 64.2815ZM69.3153 72.6548L70.5733 77.0299H67.6577L69.3153 72.6548ZM49.9199 64.2963H62.5295V66.9346H58.9035V71.221H62.5295V73.7781H58.9035V81.4124H49.9273L49.9199 64.2963ZM82.0803 64.2963H88.2223L95.4003 70.9919V64.518H98.0791V81.4124H93.0323L84.7591 73.6525V81.4124H82.0803V64.2963Z" fill="black"></path>
  <path d="M80.4602 83.4373V84.8415H83.7754V83.4373H80.4676H80.4602ZM53.0358 84.9376C52.0886 84.9376 51.4596 85.0706 50.9046 85.4549C50.2682 85.8983 49.9426 86.5191 49.9426 87.3542C49.9426 88.182 50.2682 88.8028 50.9046 89.2462C51.4522 89.6305 52.0886 89.7635 53.0284 89.7635H53.6574V88.8619H53.1098C52.8656 88.8028 52.7916 88.6402 52.7916 88.4924V86.2013C52.7916 86.0535 52.8656 85.9057 53.1098 85.8318H53.7018L53.798 84.945H53.0358V84.9376ZM59.1778 84.9524C58.312 84.9524 57.6016 85.1889 56.9726 85.6323C56.3362 86.0757 56.0106 86.6669 56.0106 87.4282C56.0106 88.0933 56.3362 88.7215 56.9726 89.2462C57.5942 89.7118 58.3046 89.9113 59.1778 89.9113H59.2444C60.1176 89.9113 60.828 89.7118 61.4644 89.2462C62.0934 88.7289 62.4042 88.1007 62.4042 87.4282C62.4042 86.6743 62.0934 86.0757 61.457 85.6323C60.828 85.1889 60.125 84.9524 59.237 84.9524H59.2H59.1778ZM88.7408 84.9524C88.0304 84.9524 87.32 85.1889 86.7724 85.6323C86.136 86.0757 85.8992 86.6669 85.8992 87.4282C85.8992 88.4111 86.2914 89.1649 87.2312 89.5344C87.7196 89.7561 88.3412 89.9187 89.0516 89.9187C89.8952 89.8965 90.6056 89.7709 91.2568 89.6231V88.6476C90.7832 88.7215 90.5908 88.7954 90.0728 88.7954C89.059 88.8175 88.9406 88.3741 88.9628 87.8124H91.3308C91.3308 87.2951 91.2568 86.9034 91.1828 86.593C91.1088 86.2235 90.8646 85.8392 90.5538 85.5584C89.6658 84.9228 89.2958 85.0263 88.7408 84.9524ZM64.4688 85.0854V88.2633C64.4688 88.8028 64.6168 89.2462 65.0164 89.5344C65.4086 89.8448 65.8748 90 66.5112 90C67.1402 90 67.7692 89.8522 68.3242 89.5344V89.7561H71.6394V85.0854H68.3316V88.1894C68.3316 88.3372 68.3316 88.4111 68.2576 88.485C68.1836 88.5589 68.0948 88.5589 67.932 88.5589C67.6952 88.5589 67.5398 88.485 67.5398 88.1894V85.0854H64.454H64.4688ZM73.6818 85.0854V89.7635H77.071V87.1399C77.071 86.7556 77.145 86.5265 77.4632 86.3122C77.7 86.1644 78.0182 86.0905 78.4104 86.0905V85.0928C77.8628 85.0928 77.3892 85.2406 77.0784 85.4032V85.0928H73.6744L73.6818 85.0854ZM80.4602 85.0854V89.7635H83.7754V85.0854H80.4676H80.4602ZM93.388 85.0854V89.7635H96.7032V87.1399C96.7032 86.7556 96.8512 86.5265 97.0954 86.3122C97.3322 86.1644 97.6578 86.0905 98.0426 86.0905V85.0928C97.5764 85.0928 97.1028 85.2406 96.7106 85.4032V85.0928H93.3954L93.388 85.0854ZM89.4512 85.9944C89.8212 86.0166 89.8804 86.497 89.9988 86.8295H88.9628C89.0516 86.2974 89.2144 85.987 89.4512 85.987V85.9944ZM59.1852 86.0683H59.2592C59.496 86.0683 59.6514 86.2309 59.6514 86.46V88.5589C59.6514 88.7954 59.5034 88.9284 59.2592 88.9284H59.1852C58.9632 88.9284 58.793 88.7954 58.793 88.5589V86.4674C58.793 86.2309 58.9558 86.0757 59.1926 86.0757L59.1852 86.0683Z" fill="#919396"></path>
  <path d="M47.3604 13.7091V47.3723L58.046 52.9003L60.2512 51.8657V17.4413L72.4242 15.372V14.1156L58.046 16.5544L47.3604 13.7018V13.7091Z" fill="#0F2345"></path>
  <path d="M63.4775 18.269V55.2948L74.1557 60.8228L76.3757 59.5886V21.9716L87.8827 18.6755V17.4413L74.1631 21.1143L63.4775 18.269Z" fill="#0F2345"></path>
  <path d="M63.2404 11.5068V12.3937L72.4164 14.1156V15.3498L74.6882 14.8842V13.7018L63.2404 11.5068ZM76.9008 13.9456V49.7298L90.1468 52.8116V16.4362L76.9008 13.9456ZM0 0L0.592 9.18624L21.3564 19.0154C14.4966 16.318 9.3092 14.2265 5.6684 12.7632L5.846 16.4879L6.9782 17.0792C15.6362 21.5799 22.422 24.9573 27.38 27.2705L11.692 20.3383L11.8696 24.5508L13.246 25.1938L14.5558 25.8959C15.1478 26.1915 15.7398 26.4428 16.3466 26.731L37.333 37.2253L17.353 27.9874L17.5306 32.126L45.103 46.1899H45.1622V13.2805H45.2732L0 0ZM47.36 13.7091V47.3723L58.0456 52.8782V16.5544L47.36 13.7018V13.7091ZM60.2508 17.4413V53.7133L74.1628 60.8228V21.1143L60.236 17.4413H60.2508ZM90.317 11.6177H90.4354L103.215 13.1697V46.0716L101.01 45.1848L90.206 43.7806V11.6768L90.317 11.6177Z" fill="#0F2345"></path>
  <path d="M76.9004 13.9383L79.4682 47.2541L90.139 52.819L92.3442 51.4518V17.3083L101.002 14.8103V13.5761L90.139 16.4362L76.9004 13.9383Z" fill="#0F2345"></path>
  <path d="M63.2404 11.5068V18.8528L74.6956 24.1961L76.9008 23.1614L86.321 21.5651V11.7359L74.6882 13.7165L63.2404 11.5068ZM90.428 11.6177L92.3964 40.5436L103.2 46.0716L105.272 44.7931L105.287 14.0491L103.067 13.177L90.428 11.6177Z" fill="#0F2345"></path>
  <path d="M148 0L103.208 13.1697V46.0716L130.632 31.9043L130.81 27.8026L110.904 37.0627L131.891 26.5684C132.438 26.2728 132.956 26.0215 133.556 25.7333C133.985 25.5116 134.444 25.2529 134.932 25.0682L136.308 24.3587L136.53 20.1683C133.807 21.336 128.612 23.7157 120.857 27.1375C125.756 24.8464 132.549 21.3951 141.266 16.8944L142.325 16.3032L142.583 12.5045C138.921 14.0565 133.755 16.1258 126.881 18.9046L147.571 8.92758L148 0ZM101.01 13.5761L90.1471 16.4362V52.819L101.003 47.2023V45.1848L101.01 13.5761ZM87.8753 17.4191L74.1557 21.1143V60.8228L87.8827 53.7872L87.8753 17.4191ZM86.3213 11.7359L74.6885 13.7091V14.8916L76.9085 15.3498V13.9456L86.3213 12.3937V11.7285V11.7359ZM72.4241 14.1156L58.0459 16.5544V52.9003L60.2511 51.8657V17.4413L72.4241 15.372V14.1156Z" fill="#475F9A"></path>
  <path d="M34.4844 10.4426V40.6692L45.1626 46.1898L47.3604 45.1552V14.16L59.2448 12.8075V11.5659L45.1626 13.2879L34.4844 10.4426Z" fill="#0F2345"></path>
  <path d="M59.1781 11.5585H59.2521V12.2237L47.3677 13.7018V45.3547L45.1699 46.1899V13.2805H45.2883L59.1781 11.5585Z" fill="#475F9A"></path>
  <path d="M0 0L45.288 13.2805L59.1778 11.5585L0 0ZM148 0L90.1912 11.6177H90.3096L103.208 13.1697L148 0ZM74.148 10.1987L63.2404 11.5068L74.6882 13.7091L86.321 11.7359L74.2146 10.2061L74.148 10.1987ZM61.0278 11.9872L59.2518 12.2089L47.36 13.7165L58.0308 16.5544L72.409 14.1156L63.233 12.3937L61.0278 11.9872ZM88.4818 11.9872L86.321 12.3937L76.9008 13.9456L90.1468 16.4362L101.003 13.5761L90.1986 12.1719L88.4818 11.9872ZM74.6882 14.8842L72.4238 15.3498L60.2508 17.4413L74.1628 21.1143L87.875 17.4413L76.9008 15.3498L74.6882 14.8842Z" fill="#BAD2ED"></path>
</svg>
