<?xml version="1.0" encoding="UTF-8"?>
<!DOCTYPE svg PUBLIC "-//W3C//DTD SVG 1.1//EN" "http://www.w3.org/Graphics/SVG/1.1/DTD/svg11.dtd">
<!-- Creator: CorelDRAW -->
<svg xmlns="http://www.w3.org/2000/svg" xml:space="preserve" width="39.0096mm" height="21.5545mm" style="shape-rendering:geometricPrecision; text-rendering:geometricPrecision; image-rendering:optimizeQuality; fill-rule:evenodd; clip-rule:evenodd"
viewBox="0 0 39.0096 21.5545"
 xmlns:xlink="http://www.w3.org/1999/xlink">
 <defs>
  <style type="text/css">
   <![CDATA[
    .str0 {stroke:#FFF500;stroke-width:0.2117}
    .fil1 {fill:#FFF500}
    .fil2 {fill:#0062A6}
    .fil0 {fill:#CC0000}
    .fil3 {fill:white;fill-rule:nonzero}
   ]]>
  </style>
 </defs>
 <g id="Layer_x0020_1">
  <metadata id="CorelCorpID_0Corel-Layer"/>
  <polygon class="fil0" points="0,0 39.0096,0 39.0096,21.5545 0,21.5545 "/>
  <g id="_88469632">
   <g>
    <path id="_88078360" class="fil1 str0" d="M5.2977 4.8861l-0.0723 0.2533 -2.844 8.638 2.268 0 1.134 -3.7422c4.9376,4.387 11.5764,5.9956 15.8335,5.1661 6.0244,-1.1738 10.4045,-3.0851 15.0113,-11.1763l-8.8452 -0.1701c-0.1206,-0.021 0.1755,1.703 -0.4105,3.3681 -0.803,2.2817 -1.7607,3.5807 -3.5067,4.4329 3.1128,-4.2241 1.4584,-7.2263 -0.6432,-8.7599 -1.1395,-0.8314 -2.4552,-1.1474 -3.1122,-1.184 -4.0727,-0.2273 -7.2582,3.9821 -5.9893,7.6634 0.1066,0.3092 0.445,0.8919 0.9189,1.4058 0.9446,1.0242 2.2279,1.9874 1.8869,1.4525 -0.5908,-0.9265 -2.3071,-2.7659 -1.8073,-4.7402 1.0784,-4.2616 7.9054,-3.4354 7.8956,0.756 -0.0063,2.6424 -2.0681,4.6429 -4.4641,5.1281 -2.8198,0.571 -5.6787,-0.2031 -7.9864,-1.4047 -1.2946,-0.674 -2.3604,-1.2968 -3.3941,-2.222 -0.16,-0.1432 2.7293,0.1166 4.6373,-0.9432 1.5318,-0.8507 2.3199,-2.854 1.0022,-3.9922 -1.9221,-1.6603 -7.127,-0.747 -9.8127,-0.3388l0.0082 0.3861 2.2921 0.0233z"/>
    <path id="_88458752" class="fil2 str0" d="M30.7804 3.9126c-1.2194,4.3126 -4.2949,7.9869 -8.2917,8.5596 2.4763,-1.5152 1.9901,-1.0278 2.7766,-1.7523 0.695,-0.6402 1.1978,-1.4274 1.487,-1.9967 0.715,-1.4072 1.0923,-2.6578 1.0149,-4.8573l3.0132 0.0467z"/>
    <path id="_87362304" class="fil0 str0" d="M24.5158 14.5235c2.4898,-1.4894 4.6685,-2.8941 5.7999,-4.2137 1.8858,-2.1994 1.9606,-2.7293 3.252,-6.3436l3.0605 0.0588c-2.103,3.2962 -3.2101,5.1411 -5.7087,7.2338 -1.5495,1.2979 -4.005,2.5894 -6.4037,3.2647z"/>
   </g>
   <path id="_88459040" class="fil0 str0" d="M6.123 8.7824l1.0829 -3.9803c5.693,-0.9558 6.3782,4.4484 -1.0829,3.9803z"/>
  </g>
  <path class="fil3" d="M4.2431 19.9303l-0.5858 0 0.5957 -2.8428 1.1557 0c0.2052,0 0.368,0.0245 0.4871,0.0728 0.1198,0.0483 0.2145,0.1284 0.2846,0.2403 0.0695,0.1118 0.1046,0.2455 0.1046,0.4004 0,0.1436 -0.0278,0.2833 -0.0834,0.419 -0.0556,0.1357 -0.1238,0.2442 -0.2045,0.3256 -0.0808,0.0815 -0.1681,0.1437 -0.2608,0.1854 -0.0933,0.0417 -0.2184,0.0741 -0.3766,0.0959 -0.0913,0.0133 -0.2634,0.0192 -0.5156,0.0192l-0.374 0 -0.227 1.0842zm0.3237 -1.5554l0.1807 0c0.3084,0 0.5149,-0.0192 0.6182,-0.0583 0.1032,-0.0384 0.1853,-0.1006 0.2442,-0.186 0.0596,-0.0853 0.0893,-0.1787 0.0893,-0.2813 0,-0.0681 -0.0152,-0.1244 -0.0456,-0.1681 -0.0305,-0.0443 -0.0728,-0.0761 -0.1278,-0.096 -0.0549,-0.0205 -0.1774,-0.0304 -0.3673,-0.0304l-0.419 0 -0.1727 0.8201zm1.9254 0.4401c0,-0.1674 0.0258,-0.3448 0.0761,-0.5308 0.0656,-0.2495 0.1662,-0.466 0.3012,-0.65 0.135,-0.1833 0.3058,-0.3283 0.511,-0.4348 0.2058,-0.1073 0.4395,-0.1602 0.7022,-0.1602 0.3515,0 0.6354,0.1092 0.8519,0.3276 0.2171,0.2184 0.325,0.5084 0.325,0.8684 0,0.3005 -0.0702,0.5904 -0.2112,0.8711 -0.141,0.2806 -0.3322,0.4964 -0.5738,0.6473 -0.2423,0.1515 -0.5156,0.227 -0.8208,0.227 -0.2647,0 -0.4871,-0.0602 -0.6671,-0.18 -0.1794,-0.1205 -0.3065,-0.2694 -0.382,-0.4475 -0.0747,-0.1773 -0.1125,-0.3567 -0.1125,-0.5381zm0.5779 -0.0112c0,0.1952 0.0595,0.3587 0.1787,0.4904 0.1191,0.1317 0.2753,0.1979 0.4692,0.1979 0.1576,0 0.3091,-0.0523 0.4547,-0.1562 0.1457,-0.1039 0.2655,-0.2614 0.3608,-0.4732 0.0946,-0.2112 0.1423,-0.417 0.1423,-0.6176 0,-0.2237 -0.0603,-0.3991 -0.1801,-0.5262 -0.1204,-0.1277 -0.2733,-0.1912 -0.46,-0.1912 -0.2852,0 -0.5176,0.133 -0.6969,0.3997 -0.1787,0.2661 -0.2687,0.558 -0.2687,0.8764zm2.4165 0.2052l0.5566 -0.0292c0.0073,0.1774 0.0377,0.2972 0.0907,0.3588 0.0854,0.1012 0.2436,0.1515 0.4732,0.1515 0.1913,0 0.3297,-0.0344 0.415,-0.1025 0.0854,-0.0689 0.1285,-0.1516 0.1285,-0.2483 0,-0.084 -0.0351,-0.1555 -0.1053,-0.2137 -0.049,-0.0424 -0.184,-0.1119 -0.4044,-0.2072 -0.2204,-0.096 -0.3812,-0.1754 -0.4825,-0.2396 -0.1013,-0.0642 -0.1814,-0.1469 -0.2396,-0.2489 -0.0583,-0.1026 -0.0874,-0.2217 -0.0874,-0.3587 0,-0.2396 0.0867,-0.4375 0.2601,-0.5957 0.1735,-0.1575 0.4243,-0.2363 0.7526,-0.2363 0.3336,0 0.5917,0.0781 0.7744,0.2343 0.1827,0.1569 0.2833,0.3647 0.3018,0.6248l-0.5606 0.0252c-0.0146,-0.1357 -0.0635,-0.2403 -0.1476,-0.3124 -0.0841,-0.0722 -0.2078,-0.1086 -0.372,-0.1086 -0.1615,0 -0.2773,0.0285 -0.3461,0.0854 -0.0695,0.0569 -0.104,0.1284 -0.104,0.2151 0,0.0814 0.0318,0.1489 0.0954,0.2019 0.0628,0.0543 0.2032,0.1284 0.4203,0.223 0.3276,0.141 0.5354,0.2549 0.6248,0.3429 0.133,0.1297 0.1999,0.2959 0.1999,0.4984 0,0.2508 -0.0993,0.4653 -0.2979,0.6427 -0.1986,0.178 -0.4746,0.2667 -0.8293,0.2667 -0.2443,0 -0.4561,-0.041 -0.6348,-0.1231 -0.1793,-0.0821 -0.3058,-0.1959 -0.3792,-0.3422 -0.0735,-0.1463 -0.1079,-0.3137 -0.1026,-0.5043zm0.777 1.1324l0.5977 0 -0.0582 0.2833c-0.0781,0.3713 -0.3105,0.5686 -0.6983,0.5937l0.0622 -0.3024c0.1562,-0.0199 0.2436,-0.0927 0.2614,-0.2198l-0.2382 0 0.0734 -0.3548zm3.0196 -0.2111l-0.5858 0 0.4964 -2.3676 -0.8333 0 0.0986 -0.4752 2.2399 0 -0.0987 0.4752 -0.8227 0 -0.4944 2.3676zm2.7561 -0.6281l-1.1272 0 -0.3409 0.6281 -0.6009 0 1.607 -2.8428 0.65 0 0.4613 2.8428 -0.5546 0 -0.0947 -0.6281zm-0.0721 -0.4733l-0.1649 -1.1444 -0.6863 1.1444 0.8512 0zm2.6309 1.1014l-0.5851 0 0.5951 -2.8428 1.2622 0c0.2171,0 0.3865,0.0225 0.507,0.0669 0.1211,0.045 0.2191,0.1264 0.2932,0.2455 0.0741,0.1185 0.1112,0.2628 0.1112,0.4322 0,0.2416 -0.0721,0.4415 -0.2171,0.5984 -0.145,0.1568 -0.364,0.2541 -0.6573,0.2919 0.0748,0.0668 0.1457,0.1555 0.2112,0.2654 0.131,0.2224 0.276,0.5368 0.4368,0.9425l-0.6288 0c-0.0503,-0.1602 -0.1489,-0.4104 -0.2965,-0.7506 -0.0801,-0.1833 -0.1655,-0.3071 -0.2561,-0.37 -0.0556,-0.0377 -0.1523,-0.0562 -0.2906,-0.0562l-0.2383 0 -0.2469 1.1768zm0.3356 -1.6037l0.3104 0c0.3144,0 0.5229,-0.0186 0.6255,-0.0563 0.1026,-0.0371 0.1834,-0.096 0.2416,-0.1761 0.0576,-0.0807 0.0867,-0.1641 0.0867,-0.2521 0,-0.104 -0.0417,-0.1814 -0.1257,-0.233 -0.0517,-0.0311 -0.1635,-0.0464 -0.3356,-0.0464l-0.6434 0 -0.1595 0.7639zm2.1193 0.4884c0,-0.1674 0.0258,-0.3448 0.0761,-0.5308 0.0656,-0.2495 0.1662,-0.466 0.3012,-0.65 0.135,-0.1833 0.3058,-0.3283 0.511,-0.4348 0.2058,-0.1073 0.4395,-0.1602 0.7022,-0.1602 0.3515,0 0.6354,0.1092 0.8519,0.3276 0.2171,0.2184 0.325,0.5084 0.325,0.8684 0,0.3005 -0.0702,0.5904 -0.2112,0.8711 -0.141,0.2806 -0.3322,0.4964 -0.5738,0.6473 -0.2423,0.1515 -0.5156,0.227 -0.8208,0.227 -0.2647,0 -0.4871,-0.0602 -0.6671,-0.18 -0.1794,-0.1205 -0.3065,-0.2694 -0.382,-0.4475 -0.0747,-0.1773 -0.1125,-0.3567 -0.1125,-0.5381zm0.5779 -0.0112c0,0.1952 0.0595,0.3587 0.1787,0.4904 0.1191,0.1317 0.2753,0.1979 0.4692,0.1979 0.1576,0 0.3091,-0.0523 0.4547,-0.1562 0.1457,-0.1039 0.2655,-0.2614 0.3608,-0.4732 0.0946,-0.2112 0.1423,-0.417 0.1423,-0.6176 0,-0.2237 -0.0603,-0.3991 -0.1801,-0.5262 -0.1204,-0.1277 -0.2733,-0.1912 -0.46,-0.1912 -0.2852,0 -0.5176,0.133 -0.6969,0.3997 -0.1787,0.2661 -0.2687,0.558 -0.2687,0.8764zm3.962 1.1265l-0.5547 0 -0.1026 -2.3755 -0.452 2.3755 -0.5276 0 0.5937 -2.8428 0.8334 0 0.0873 1.9916 0.9697 -1.9916 0.8439 0 -0.5957 2.8428 -0.5335 0 0.5606 -2.3583 -1.1225 2.3583zm3.5351 -0.6281l-1.1272 0 -0.3409 0.6281 -0.6009 0 1.607 -2.8428 0.65 0 0.4613 2.8428 -0.5546 0 -0.0947 -0.6281zm-0.0721 -0.4733l-0.1649 -1.1444 -0.6863 1.1444 0.8512 0zm0.0079 -2.255l-0.3415 0.3448 -0.4574 0 0.5758 -0.5838 0.5196 0 0.237 0.5838 -0.3839 0 -0.1496 -0.3448zm3.3431 3.3564l-0.5454 0 -0.7677 -1.9102 -0.3992 1.9102 -0.5447 0 0.5931 -2.8428 0.5467 0 0.7697 1.9023 0.3978 -1.9023 0.5428 0 -0.5931 2.8428zm2.4569 -0.6281l-1.1272 0 -0.3409 0.6281 -0.6009 0 1.607 -2.8428 0.65 0 0.4613 2.8428 -0.5546 0 -0.0947 -0.6281zm-0.0721 -0.4733l-0.1649 -1.1444 -0.6863 1.1444 0.8512 0zm-0.6633 -2.4258l0.2694 0c0.0298,0.1046 0.0695,0.1774 0.1192,0.2191 0.0496,0.041 0.1132,0.0616 0.1893,0.0616 0.1535,0 0.2813,-0.0934 0.3819,-0.2807l0.2561 0c-0.0529,0.1781 -0.139,0.3164 -0.2581,0.415 -0.1191,0.098 -0.2515,0.147 -0.3971,0.147 -0.1516,0 -0.276,-0.047 -0.3747,-0.1404 -0.0979,-0.0939 -0.1601,-0.2343 -0.186,-0.4216z"/>
 </g>
</svg>
